{"title":"Love (2015) 720P WEB-DL AAC2 0 H 264  (Gaspar Noé)","uid":12763056,"size":1626731834,"categoryP":"video","categoryS":"hd___movies","magnet":"?xt=urn:btih:4a2584748637dcda017f6618fb686ad290397fd6&amp;dn=Love+%282015%29+720P+WEB-DL+AAC2+0+H+264++%28Gaspar+No%26eacute%3B%29&amp;tr=udp%3A%2F%2Ftracker.leechers-paradise.org%3A6969&amp;tr=udp%3A%2F%2Fzer0day.ch%3A1337&amp;tr=udp%3A%2F%2Fopen.demonii.com%3A1337&amp;tr=udp%3A%2F%2Ftracker.coppersurfer.tk%3A6969&amp;tr=udp%3A%2F%2Fexodus.desync.com%3A6969","seeders":25,"leechers":2,"uploader":"jmanwf","files":1,"time":1447556140,"description":"A sexual melodrama about a boy and a girl and another girl. It's a love story, which celebrates sex in a joyous way.\r\n\r\n\r\n\r\nStoryline\r\n\r\nMurphy is an American living in Paris who enters a highly sexually and emotionally charged relationship with the unstable Electra. Unaware of the effect it will have on their relationship, they invite their pretty neighbor into their bed.\r\n\r\n\r\n\r\nVideo\r\nID : 1\r\nFormat : AVC\r\nFormat/Info : Advanced Video Codec\r\nFormat profile :   \r\nFormat settings, CABAC : Yes\r\nFormat settings, ReFrames : 5 frames\r\nCodec ID : avc1\r\nCodec ID/Info : Advanced Video Coding\r\nDuration : 2h 15mn\r\nBit rate : 1 437 Kbps\r\nWidth : 1 280 pixels\r\nHeight : 720 pixels\r\nDisplay aspect ratio : 16:9\r\nFrame rate mode : Constant\r\nFrame rate : 24.000 fps\r\nColor space : YUV\r\nChroma subsampling : 4:2:0\r\nBit depth : 8 bits\r\nScan type : Progressive\r\nBits/(Pixel*Frame) : 0.065\r\nStream size : 1.36 GiB (90%)\r\nWriting library : x264 core 148 r11 73ae2d1\r\n\r\nEncoded date : UTC 2015-11-12 01:32:49\r\nTagged date : UTC 2015-11-12 01:32:49\r\nColor range : Limited\r\nColor primaries : BT.709\r\nTransfer characteristics : BT.709\r\nMatrix coefficients : BT.709\r\n\r\nAudio\r\nID : 2\r\nFormat : AAC\r\nFormat/Info : Advanced Audio Codec\r\nFormat profile : LC\r\nCodec ID : 40\r\nDuration : 2h 15mn\r\nBit rate mode : Variable\r\nBit rate : 160 Kbps\r\nChannel(s) : 2 channels\r\nChannel positions : Front: L R\r\nSampling rate : 48.0 KHz\r\nCompression mode : Lossy\r\nStream size : 155 MiB (10%)\r\nEncoded date : UTC 2015-11-12 01:32:49\r\nTagged date : UTC 2015-11-12 01:32:49\r\n\r\nActors: Aomi Muyock, Klara Kristin, Karl Glusman\r\n\r\n\r\n\r\nDirectors: Gaspar Noé","torrent":{"xt":"urn:btih:4a2584748637dcda017f6618fb686ad290397fd6","amp;dn":"Love+%282015%29+720P+WEB-DL+AAC2+0+H+264++%28Gaspar+No%26eacute%3B%29","amp;tr":["udp%3A%2F%2Ftracker.leechers-paradise.org%3A6969","udp%3A%2F%2Fzer0day.ch%3A1337","udp%3A%2F%2Fopen.demonii.com%3A1337","udp%3A%2F%2Ftracker.coppersurfer.tk%3A6969","udp%3A%2F%2Fexodus.desync.com%3A6969"],"infoHash":"4a2584748637dcda017f6618fb686ad290397fd6","infoHashBuffer":{"type":"Buffer","data":[74,37,132,116,134,55,220,218,1,127,102,24,251,104,106,210,144,57,127,214]},"announce":[],"urlList":[]}}